<svg id="Capa_1" enable-background="new 0 0 512 512" height="512" viewBox="0 0 512 512" width="512" xmlns="http://www.w3.org/2000/svg"><g><path d="m376 361h-120-120c-41.353 0-75 33.647-75 75v61c0 8.291 6.709 15 15 15h180 180c8.291 0 15-6.709 15-15v-61c0-41.353-33.647-75-75-75z" fill="#613d5c"/><path d="m451 497v-61c0-41.353-33.647-75-75-75h-120v151h180c8.291 0 15-6.709 15-15z" fill="#4b2746"/><path d="m316 451c-8.291 0-15-6.709-15-15v-75c0-8.291 6.709-15 15-15s15 6.709 15 15v75c0 8.291-6.709 15-15 15z" fill="#d0e4e7"/><path d="m196 451c-8.291 0-15-6.709-15-15v-75c0-8.291 6.709-15 15-15s15 6.709 15 15v75c0 8.291-6.709 15-15 15z" fill="#edf5ff"/><path d="m256 0c-107.168 0-165 116.928-165 226 0 53.789 14.268 95.229 42.407 123.179 19.427 19.296 45.687 26.739 77.593 32.677l45 .071 45 .073c78.51-14.498 120-64.358 120-156 0-109.072-57.832-226-165-226z" fill="#613d5c"/><path d="m421 226c0-109.072-57.832-226-165-226v381.927l45 .073c78.51-14.498 120-64.358 120-156z" fill="#4b2746"/><path d="m256 136c-57.99 0-105 47.01-105 105v45c0 41.814 24.624 79.111 60 96v9c0 24.853 20.147 45 45 45s45-20.147 45-45v-9c35.376-16.89 60-54.186 60-96v-45c0-57.99-47.01-105-105-105z" fill="#4b2746"/><path d="m301 391v-9c35.376-16.89 60-54.186 60-96v-45c0-57.99-47.01-105-105-105v300c24.853 0 45-20.147 45-45z" fill="#351b33"/></g></svg>